Coordinates
version=1
nRows=6
nColumns=36
inDegrees=yes

Units are S.I. units (second, meters, Newtons, ...)
If the header above contains a line with 'inDegrees', this indicates whether rotational values are in degrees (yes) or radians (no).

endheader
time	pelvis_tilt	pelvis_list	pelvis_rotation	pelvis_tx	pelvis_ty	pelvis_tz	hip_flexion_r	hip_adduction_r	hip_rotation_r	knee_angle_r	knee_angle_r_beta	ankle_angle_r	subtalar_angle_r	mtp_angle_r	hip_flexion_l	hip_adduction_l	hip_rotation_l	knee_angle_l	knee_angle_l_beta	ankle_angle_l	subtalar_angle_l	mtp_angle_l	lumbar_extension	lumbar_bending	lumbar_rotation	arm_flex_r	arm_add_r	arm_rot_r	elbow_flex_r	pro_sup_r	arm_flex_l	arm_add_l	arm_rot_l	elbow_flex_l	pro_sup_l
      1.03000000	     -2.84497224	     -0.32841970	      2.86352797	      1.18472629	      0.94675155	     -0.19523191	     26.53287720	      1.19816881	     -1.23009759	      1.99012204	      0.03473418	     -0.17363464	      0.22934046	     -7.33660791	     -8.52277494	      3.24356602	     -4.70463904	      4.73164765	      0.08258283	     17.39574027	      4.49811596	     -7.33660791	     -3.17346403	     -3.54356967	     -9.01379143	     -1.63854659	     -2.13318600	    -12.92425346	     26.75429968	    103.58969714	     27.00706120	    -11.47110495	      3.68509085	     44.41951490	    104.24749543
      1.04000000	     -3.30424975	     -0.03235864	      2.77449595	      1.19466664	      0.94416771	     -0.19436784	     27.15146081	      0.98406841	     -1.84131789	      0.85215527	      0.01487292	      1.00869907	      1.89127182	     -7.34004595	     -8.54471687	      3.49955029	     -4.79302796	      5.09949269	      0.08900294	     17.76977920	      4.53552989	     -7.34004595	     -2.69676484	     -3.89344470	     -9.03203061	     -1.95592544	     -2.07832110	    -13.35886688	     26.71103730	    103.53908856	     27.39950936	    -11.53768903	      3.51497695	     45.36963982	    104.37719497
      1.05000000	     -3.56404024	      0.11503974	      2.83553362	      1.20487109	      0.94198994	     -0.19370301	     27.71838995	      0.82660895	     -3.72319004	      0.55794364	      0.00973795	      2.77125184	      4.85428545	     -7.34788303	     -8.81309344	      3.55185752	     -4.85721872	      5.39974932	      0.09424340	     18.03250900	      4.66089232	     -7.34788303	     -2.47978917	     -4.06318631	     -9.23086634	     -2.18011816	     -2.01520030	    -13.91187374	     26.62707856	    103.49778169	     27.72242525	    -11.52672163	      3.04261947	     46.36087079	    104.51365691
      1.06000000	     -3.85474136	      0.24810839	      2.88029340	      1.21506933	      0.93984332	     -0.19286790	     28.15974035	      0.76042649	     -4.19940483	      0.45196416	      0.00788826	      3.49708245	      5.02430938	     -7.34945370	     -8.98014295	      3.58236793	     -4.81718712	      5.83308524	      0.10180654	     18.18924196	      4.55071985	     -7.34945370	     -2.22299478	     -4.22788857	     -9.25939503	     -2.44082406	     -2.02934671	    -14.02788081	     26.43588908	    103.47892133	     28.13412420	    -11.47564270	      2.99659259	     47.05792068	    104.58198230
      1.07000000	     -4.04098531	      0.26750887	      3.04734735	      1.22563766	      0.93799125	     -0.19216559	     28.29452971	      0.76088974	     -4.59167004	      0.45216608	      0.00789179	      3.99142432	      4.97737302	     -7.35067512	     -9.22621968	      3.44648250	     -4.71806690	      6.36712635	      0.11112732	     18.29178838	      4.47934284	     -7.35067512	     -2.06235059	     -4.25911788	     -9.39418582	     -2.65667518	     -2.07486899	    -14.17249792	     26.21803297	    103.43829636	     28.41088864	    -11.35781543	      2.88932986	     47.75971398	    104.62311687
      1.08000000	     -4.13840456	      0.16339615	      3.32428587	      1.23656562	      0.93650164	     -0.19156423	     28.14569006	      0.85037988	     -4.78513680	      0.52950484	      0.00924160	      4.08388509	      4.30379133	     -7.35386653	     -9.48840762	      3.13693237	     -4.69420821	      7.06311682	      0.12327464	     18.62232916	      4.46850359	     -7.35386653	     -1.99046060	     -4.06528052	     -9.94192171	     -2.72339129	     -2.06379288	    -14.48887729	     25.93996667	    103.36194879	     28.20539911	    -11.37925991	      2.26370203	     48.85286908	    104.63493121
